# xmcd
#
# Track frame offsets: 
#        150
#        19111
#        34699
#        52396
#        65621
#        81401
#        96854
#        114298
#        129927
#        154088
#        170229
#        191753
#        212910
#        234413
#        256048
#
# Disc length: 3616 seconds
#
# Revision: 3
# Processed by: cddbd v1.5.2PL0 Copyright (c) Steve Scherf et al.
# Submitted via: ExactAudioCopy v1.1
#
DISCID=d10e1e0f
DTITLE=Catawompus - The Woodpile
DYEAR=2002
DGENRE=Southern Rock
TTITLE0=Forget It All
TTITLE1=Hard
TTITLE2=Heartland
TTITLE3=Slam Bam
TTITLE4=There Goes My Baby
TTITLE5=Ain't But Life Too Short For That
TTITLE6=Jeannie
TTITLE7=Blush
TTITLE8=So Many Times
TTITLE9=Ain't Got The Blues
TTITLE10=Carolina
TTITLE11=Song Sung Yesterday
TTITLE12=Black Hills
TTITLE13=Jacobi Road
TTITLE14=Nuthin' Fancy
EXTD=
EXTT0=
EXTT1=
EXTT2=
EXTT3=
EXTT4=
EXTT5=
EXTT6=
EXTT7=
EXTT8=
EXTT9=
EXTT10=
EXTT11=
EXTT12=
EXTT13=
EXTT14=
PLAYORDER=
